<?xml version="1.0" encoding="utf-8"?>
<!-- Svg Vector Icons : http://www.onlinewebfonts.com/icon -->
<!DOCTYPE svg PUBLIC "-//W3C//DTD SVG 1.1//EN" "http://www.w3.org/Graphics/SVG/1.1/DTD/svg11.dtd">
<svg version="1.1" xmlns="http://www.w3.org/2000/svg" xmlns:xlink="http://www.w3.org/1999/xlink" x="0px" y="0px" viewBox="0 0 1000 1000" enable-background="new 0 0 1000 1000" xml:space="preserve">
<metadata> Svg Vector Icons : http://www.onlinewebfonts.com/icon </metadata>
<g><path d="M990,851.9H10V206h96.1l50.3-57.9h154.7l50.3,57.9H990V851.9z M25.4,836.5h949.2V221.4H354.5l-50.3-57.9H163.4l-50.3,57.9H25.4V836.5z M649.7,800.4c-133.7,0-242.5-108.8-242.5-242.5c0-133.7,108.8-242.5,242.5-242.5c133.7,0,242.5,108.8,242.5,242.5C892.3,691.5,783.5,800.4,649.7,800.4z M649.7,330.7c-125.2,0-227.1,101.9-227.1,227.1c0,125.2,101.9,227.1,227.1,227.1S876.9,683,876.9,557.8C876.9,432.6,775,330.7,649.7,330.7z M333.9,360.4H196.5c-20.5,0-37.1-16.6-37.1-37.1c0-20.5,16.6-37.1,37.1-37.1h137.3c20.5,0,37.1,16.6,37.1,37.1C371,343.7,354.3,360.4,333.9,360.4z M196.5,301.6c-12,0-21.7,9.7-21.7,21.7c0,12,9.7,21.7,21.7,21.7h137.3c12,0,21.7-9.7,21.7-21.7c0-12-9.7-21.7-21.7-21.7H196.5z M916.5,342.1h-36.2c-12.9,0-23.3-10.4-23.3-23.3v-36.2c0-12.9,10.4-23.3,23.3-23.3h36.2c12.9,0,23.3,10.4,23.3,23.3v36.2C939.8,331.7,929.3,342.1,916.5,342.1z M880.3,274.7c-4.3,0-7.9,3.5-7.9,7.9v36.2c0,4.3,3.5,7.9,7.9,7.9h36.2c4.3,0,7.9-3.5,7.9-7.9v-36.2c0-4.3-3.5-7.9-7.9-7.9H880.3z"/></g>
</svg>
